<svg t="1562994278587" class="icon" viewBox="0 0 1024 1024" version="1.1" xmlns="http://www.w3.org/2000/svg" p-id="4468" width="200" height="200"><path d="M426.666667 768c-25.6 0-42.666667-17.066667-42.666667-42.666667 0-12.8-4.266667-21.333333-4.266667-29.866667-8.533333-21.333333-25.6-38.4-46.933333-46.933333C273.066667 622.933333 213.333333 665.6 213.333333 725.333333c0 25.6-17.066667 42.666667-42.666667 42.666667s-42.666667-17.066667-42.666667-42.666667c0-93.866667 76.8-170.666667 170.666667-170.666667 21.333333 0 42.666667 4.266667 64 12.8 42.666667 17.066667 76.8 51.2 93.866667 93.866667 8.533333 17.066667 12.8 42.666667 12.8 64C469.333333 750.933333 448 768 426.666667 768z" p-id="4469"></path><path d="M42.666667 1024c-25.6 0-42.666667-17.066667-42.666667-42.666667s17.066667-42.666667 42.666667-42.666667c183.466667 0 341.333333-98.133333 341.333333-213.333333 0-25.6 17.066667-42.666667 42.666667-42.666667s42.666667 17.066667 42.666667 42.666667C469.333333 891.733333 277.333333 1024 42.666667 1024z" p-id="4470"></path><path d="M42.666667 1024c-25.6 0-42.666667-17.066667-42.666667-42.666667s17.066667-42.666667 42.666667-42.666667c34.133333 0 85.333333-81.066667 85.333333-213.333333 0-25.6 17.066667-42.666667 42.666667-42.666667s42.666667 17.066667 42.666667 42.666667C213.333333 896 140.8 1024 42.666667 1024z" p-id="4471"></path><path d="M418.133333 721.066667c-4.266667 0-8.533333 0-8.533333 0-12.8-4.266667-25.6-12.8-29.866667-25.6-8.533333-21.333333-25.6-38.4-46.933333-46.933333-12.8-4.266667-21.333333-17.066667-25.6-29.866667-4.266667-12.8 0-29.866667 8.533333-38.4L793.6 42.666667c55.466667-55.466667 140.8-51.2 187.733333 0C1011.2 64 1024 98.133333 1024 132.266667c0 34.133333-12.8 68.266667-38.4 93.866667L443.733333 708.266667C435.2 716.8 426.666667 721.066667 418.133333 721.066667zM413.866667 597.333333c4.266667 4.266667 8.533333 8.533333 12.8 12.8L925.866667 166.4C934.4 157.866667 938.666667 145.066667 938.666667 132.266667c0-12.8-4.266667-25.6-12.8-34.133333-21.333333-21.333333-51.2-21.333333-68.266667 0L413.866667 597.333333z" p-id="4472"></path></svg>