<svg t="1564824831902" class="icon" viewBox="0 0 1024 1024" version="1.1" xmlns="http://www.w3.org/2000/svg" p-id="2108" width="32" height="32"><path d="M307.2 269.0048a306.8928 306.8928 0 0 1 108.8-62.9248 25.6 25.6 0 0 1 28.0064 8.3456c16.4352 20.48 41.1648 32.6656 67.9936 32.6656s51.5584-12.1344 67.9936-32.6656a25.6 25.6 0 0 1 28.0064-8.3456c40.2432 13.2608 77.312 34.7136 108.8 62.9248a25.6 25.6 0 0 1 6.7584 28.3648 86.8352 86.8352 0 0 0 5.7344 75.1616c13.3632 23.2448 36.3008 38.5536 62.2592 42.5472a25.6 25.6 0 0 1 21.1968 20.1216 308.4288 308.4288 0 0 1 0 125.5936 25.6 25.6 0 0 1-21.1968 20.0704 86.8352 86.8352 0 0 0-62.2592 42.5472c-13.4144 23.1936-15.2576 50.688-5.7344 75.2128a25.6 25.6 0 0 1-6.7584 28.3648c-31.5392 28.16-68.5568 49.664-108.8 62.8736a25.6 25.6 0 0 1-28.0064-8.2944A86.8352 86.8352 0 0 0 512 748.8512c-26.8288 0-51.5584 12.1856-67.9936 32.7168a25.6 25.6 0 0 1-28.0064 8.2944A306.8928 306.8928 0 0 1 307.2 727.04a25.6 25.6 0 0 1-6.7584-28.3648 86.8352 86.8352 0 0 0-5.7344-75.2128 86.8352 86.8352 0 0 0-62.2592-42.496 25.6 25.6 0 0 1-21.1968-20.1216 308.4288 308.4288 0 0 1 0-125.5936 25.6 25.6 0 0 1 21.1968-20.1216 86.8352 86.8352 0 0 0 62.2592-42.496c13.4144-23.2448 15.2576-50.688 5.7344-75.264A25.6 25.6 0 0 1 307.2 269.056z m31.8976 129.1264a137.8816 137.8816 0 0 1-80.5376 63.488 258.4064 258.4064 0 0 0 0 72.7552c33.536 9.8816 62.464 32.256 80.5376 63.488 18.0224 31.1808 22.8352 67.4304 14.6944 101.376 19.1488 15.104 40.3456 27.392 62.976 36.4544a137.8816 137.8816 0 0 1 95.232-38.0416c36.096 0 69.888 13.9264 95.232 38.0416a255.6928 255.6928 0 0 0 62.976-36.4544 137.8816 137.8816 0 0 1 14.6944-101.376 137.8816 137.8816 0 0 1 80.5376-63.488 258.4064 258.4064 0 0 0 0-72.8064 137.8816 137.8816 0 0 1-80.5376-63.4368 137.8816 137.8816 0 0 1-14.6944-101.376 255.6928 255.6928 0 0 0-62.976-36.4544 137.8816 137.8816 0 0 1-95.232 37.9904 137.8816 137.8816 0 0 1-95.232-37.9904 255.6928 255.6928 0 0 0-62.976 36.4032c8.192 33.9968 3.328 70.1952-14.6944 101.4272zM512 636.2112a138.24 138.24 0 1 1 0-276.48 138.24 138.24 0 0 1 0 276.48z m0-51.2a87.04 87.04 0 1 0 0-174.08 87.04 87.04 0 0 0 0 174.08z" p-id="2109"></path></svg>